<svg width="296" height="296" viewBox="0 0 296 296" fill="none" xmlns="http://www.w3.org/2000/svg">
  <g id="Logo">
    <g id="TopPerson">
      <circle id="Ellipse 1" cx="148" cy="69" r="22" fill="#D9D9D9" />
      <path id="Vector 1"
        d="M165 93.5C151.246 101.782 143.891 102.029 131.5 93.5C120.682 102.713 116.896 108.529 114 120H181.5C179.569 108.693 175.87 102.909 165 93.5Z"
        fill="#D9D9D9" stroke="#D9D9D9" />
    </g>
    <g id="LeftPerson">
      <circle id="Ellipse 3" cx="103" cy="148" r="22" fill="#D9D9D9" />
      <g id="Vector 3">
        <path
          d="M83 168.54L122 197.043C124.423 199.666 124.959 201.831 125.5 206.044C127 216.711 130 238.347 130 239.547C128.599 260.753 101.713 241.776 69.5 226.546C65.6679 224.184 64.0456 222.867 63 220.545L59 185.542C68.5331 170.271 73.8852 161.32 83 168.54Z"
          fill="#D9D9D9" />
        <path
          d="M125.5 206.044C124.959 201.831 124.423 199.666 122 197.043M122 197.043L83 168.54C73.8852 161.32 68.5331 170.271 59 185.542L63 220.545C64.0456 222.867 65.6679 224.184 69.5 226.546C101.713 241.776 128.599 260.753 130 239.547C130 238.347 127 216.711 125.5 206.044C124.959 201.831 124.423 199.666 122 197.043Z"
          stroke="#D9D9D9" />
      </g>
    </g>
    <g id="RightPerson">
      <circle id="Ellipse 2" cx="191" cy="148" r="22" fill="#D9D9D9" />
      <g id="Vector 4">
        <path
          d="M212 168.54L173 197.043C170.577 199.666 170.041 201.831 169.5 206.044C168 216.711 165 238.347 165 239.547C166.401 260.753 193.287 241.776 225.5 226.546C229.332 224.184 230.954 222.867 232 220.545L236 185.542C226.467 170.271 221.115 161.32 212 168.54Z"
          fill="#D9D9D9" />
        <path
          d="M169.5 206.044C170.041 201.831 170.577 199.666 173 197.043M173 197.043L212 168.54C221.115 161.32 226.467 170.271 236 185.542L232 220.545C230.954 222.867 229.332 224.184 225.5 226.546C193.287 241.776 166.401 260.753 165 239.547C165 238.347 168 216.711 169.5 206.044C170.041 201.831 170.577 199.666 173 197.043Z"
          stroke="#D9D9D9" />
      </g>
    </g>
    <g id="Square">
      <rect id="Rectangle 1" x="15" y="15" width="266" height="266" rx="31" stroke="#D9D9D9"
        stroke-width="30" />
    </g>
  </g>
</svg>